<?xml version="1.0" encoding="UTF-8"?><svg xmlns="http://www.w3.org/2000/svg" xmlns:xlink="http://www.w3.org/1999/xlink" viewBox="0 0 142 89.87"><defs><style>.cls-1{isolation:isolate;}.cls-2{fill:#393185;}.cls-3{clip-path:url(#clippath);}.cls-4{fill:none;}.cls-5{fill:#e31f24;}.cls-6{fill:#fefefe;fill-rule:evenodd;filter:url(#drop-shadow-1);}</style><clipPath id="clippath"><polygon class="cls-4" points="0 .54 142 .02 142 89.32 0 89.85 0 .54"/></clipPath><filter id="drop-shadow-1" filterUnits="userSpaceOnUse"><feOffset dx="0" dy="0"/><feGaussianBlur result="blur" stdDeviation="1"/><feFlood flood-color="#000" flood-opacity=".7"/><feComposite in2="blur" operator="in"/><feComposite in="SourceGraphic"/></filter></defs><g id="Layer_1" image-rendering="optimizeQuality" shape-rendering="geometricPrecision" text-rendering="geometricPrecision"><g id="Layer_1-2"><g id="_3210602030688"><g class="cls-3"><image class="cls-1" width="801" height="507" transform="translate(.01) scale(.18)" xlink:href="VOH Radio (1)_Images/VOH Radio (1)_ImgID1.png"/></g><path class="cls-6" d="M51.97,57.78c-2.73-1.5-4.85-3.63-6.3-6.38-1.46-2.75-2.17-5.76-2.31-8.86v-.08s.06-4.54,.06-4.54v-.06c.11-1.67,.35-3.34,.69-4.98,1.48-7.13,4.29-13.82,9.04-19.4,4.93-5.79,11.59-8.16,19.06-8.16,3.69,0,7.23,.82,10.39,2.77,3.49,2.15,5.54,5.68,6.73,9.51v.03s.02,.03,.02,.03c.66,2.34,.92,4.77,.89,7.2-.04,2.85-.45,5.72-1.03,8.51-.72,3.45-1.75,6.86-3.28,10.05-1.47,3.07-3.37,5.9-5.64,8.44-2.3,2.58-5.03,4.63-8.16,6.09-3.19,1.48-6.59,2.15-10.1,2.15s-7.03-.56-10.07-2.31Zm45.48,8.29l-3.84,18.57h-8.69l3.84-18.57h0l1.46-7.03h-5.16l-5.58,25.6h-8.34c-.96,.29-1.96,.41-2.96,.41-2.24,0-4.29-.69-5.91-2.25-1.76-1.69-2.4-4.04-2.46-6.42-.08-3.05,.85-5.85,2.7-8.28,1.99-2.62,4.73-3.91,8.01-3.91,1.65,0,3.18,.33,4.52,1.06l1.48-6.86h7.81L94.91,6.3h16.98l-3.83,18.85h8.65l3.84-18.85h16.92l-10.73,52.74h-16.92l3.97-19.5h-8.76l-3.97,19.5h-2.15l-1.45,7.03h0Zm-70.2,8.26c1.61,2.36,2.97,5.1,4.18,7.69l1.23,2.62h-9.73l-.45-1.19c-.73-1.93-1.77-3.93-2.71-5.76-.34-.67-.99-1.79-1.66-2.2-.32-.16-1.3-.18-1.64-.18h-.62l-1.93,9.33H4.98l5.3-25.6h-.01L4.78,6.3H22.79l1.87,27.16L38.12,6.3h17.47L28.06,58.97s.08,.02,.11,.04c1.46,.48,2.66,1.37,3.56,2.62,.95,1.32,1.38,2.85,1.43,4.46,.06,2.33-.68,4.45-2.34,6.1-1,1-2.24,1.68-3.57,2.14Zm19.35,9.7c-.2,.1-.4,.19-.6,.28-1.13,.48-2.32,.73-3.54,.73-1.87,0-3.6-.56-5-1.8-1.41-1.25-2.14-2.89-2.19-4.77-.05-2.02,.62-3.84,2.14-5.19,.36-.32,.76-.59,1.19-.82l-2.27-.17,.8-2.27c.66-1.87,1.88-3.33,3.58-4.36,1.9-1.14,4.18-1.49,6.37-1.49s4.57,.32,6.34,1.63c1.51,1.12,2.47,2.64,2.52,4.54,.02,.64-.03,1.27-.13,1.9-.23,1.48-.61,3.04-.93,4.5-.22,1-.6,2.63-.57,3.66,.01,.59,.18,1.21,.38,1.77l.85,2.45h-8.72l-.21-.61h0Zm53.6-7.97c-.09-3.27,.84-6.33,3.22-8.64,2.39-2.32,5.45-3.23,8.72-3.23,2.74,0,5.44,.63,7.55,2.45,2.02,1.75,2.97,4.08,3.04,6.73,.08,3.14-.99,5.93-3.15,8.2-2.36,2.48-5.46,3.48-8.84,3.48-1.85,0-3.68-.32-5.36-1.09-1.6-.74-2.94-1.84-3.85-3.35-.84-1.4-1.3-2.92-1.34-4.55Zm-82.9-7.81h.49c1.19,0,3.83,.02,4.95-.35,.47-.16,.92-.39,1.23-.79,.19-.24,.34-.51,.33-.82,0-.16-.04-.19-.17-.27-.44-.16-1.68-.16-2.14-.16h-4.2s-.5,2.4-.5,2.4Zm28.51,9.15c-.87,.14-1.78,.34-2.19,.58,.11,.06,.3,.07,.4,.07,.45,0,.86-.09,1.26-.3,.18-.09,.37-.21,.52-.35Zm22.45-1.3c.01,.52,.12,1.1,.51,1.48,.35,.33,.73,.47,1.21,.47,.54,0,.99-.17,1.43-.48,.56-.4,.92-1.07,1.17-1.7,.31-.81,.52-1.67,.49-2.55-.02-.61-.16-1.18-.6-1.61-.35-.34-.72-.57-1.22-.57-.93,0-1.5,.53-1.98,1.3-.7,1.12-1.04,2.34-1,3.66Zm45.89-3.23c-.01-.48-.13-.9-.49-1.23-.4-.36-.88-.47-1.41-.47-.63,0-1.2,.16-1.71,.53-.59,.43-.97,1.09-1.22,1.76-.29,.76-.51,1.61-.48,2.43,.02,.57,.14,1.12,.57,1.53,.41,.39,.87,.53,1.43,.53,.82,0,1.41-.3,1.94-.92,1.01-1.19,1.41-2.6,1.37-4.16ZM62.18,27.64l-.81,2.69-.78,2.96c-.17,.82-.32,1.65-.46,2.48v.05s-.02,.05-.02,.05c-.22,1.04-.27,2.22-.29,3.28-.03,1.37,.1,2.74,.39,4.09,.42,1.73,1.28,2.39,2.94,2.46l.43-.12h.37c.85,0,1.62-.22,2.36-.64,.98-.55,1.87-1.54,2.54-2.43,2.09-2.91,3.27-6.72,3.99-10.19,.52-2.52,1.87-10.02-.67-11.95-.61-.47-1.46-.58-2.21-.58h-1.11c-.31,.09-.62,.17-.94,.24-.26,.12-.64,.4-.85,.56l-.13,.1-.14,.08c-1.06,.6-1.86,1.5-2.48,2.54l-.03,.04-.03,.04c-.86,1.32-1.54,2.79-2.1,4.27Z"/><path class="cls-5" d="M46.69,33.41c1.53-7.35,4.34-13.43,8.46-18.23,4.07-4.83,9.76-7.23,17.06-7.23,3.39,0,6.39,.79,9,2.37,2.57,1.61,4.44,4.3,5.6,8.06,.54,1.89,.8,4.04,.79,6.45-.05,2.45-.37,5.12-.97,8.01-.73,3.5-1.75,6.64-3.08,9.45-1.36,2.81-3.11,5.42-5.22,7.83-2.17,2.4-4.6,4.21-7.31,5.45-2.7,1.27-5.7,1.9-8.99,1.9-3.58,0-6.5-.66-8.78-1.97-2.32-1.27-4.08-3.04-5.27-5.32-1.2-2.23-1.87-4.82-2-7.75l.06-4.4c.09-1.44,.3-2.98,.64-4.61Zm11.34-.72c-.17,.84-.34,1.72-.49,2.64-.2,.96-.32,2.21-.34,3.75-.04,1.57,.11,3.14,.45,4.73,.71,3.01,2.66,4.52,5.86,4.52l.45-.13c1.3,0,2.52-.33,3.65-.97,1.12-.62,2.24-1.67,3.36-3.16,1.99-2.76,3.47-6.5,4.45-11.22,2.17-10.47,.36-15.71-5.45-15.71h-1.5c-.42,.13-.81,.24-1.18,.32-.41,.09-1,.42-1.78,1-1.37,.78-2.52,1.94-3.44,3.48-.88,1.36-1.68,2.98-2.39,4.86l-.85,2.82-.81,3.08ZM7.7,8.93h12.64l2.36,34.41L39.76,8.93h11.49L26.43,56.4H12.64S7.7,8.93,7.7,8.93Zm89.37,0h11.61l-3.83,18.85h14.02l3.84-18.85h11.55l-9.66,47.48h-11.55l3.97-19.5h-14.13l-3.97,19.5h-11.49l9.66-47.48Z"/><path class="cls-2" d="M12.42,82.79H7.24l4.68-22.57h11.17c1.92,0,3.42,.18,4.51,.53,1.08,.36,1.96,1,2.64,1.95,.68,.95,1.04,2.09,1.08,3.43,.05,1.92-.55,3.5-1.8,4.75-1.24,1.25-3.16,2.02-5.75,2.32,.68,.54,1.32,1.24,1.93,2.11,1.2,1.77,2.56,4.26,4.06,7.48h-5.56c-.48-1.27-1.41-3.25-2.79-5.95-.75-1.46-1.53-2.44-2.35-2.94-.5-.3-1.37-.45-2.59-.45h-2.12s-1.93,9.33-1.93,9.33Zm2.63-12.7h2.75c2.78,0,4.63-.15,5.53-.45,.91-.3,1.6-.77,2.1-1.41,.5-.64,.74-1.31,.72-2.01-.02-.83-.41-1.44-1.16-1.86-.46-.25-1.46-.37-2.98-.37h-5.7s-1.26,6.08-1.26,6.08Zm28.65,.91l-4.83-.36c.51-1.45,1.44-2.58,2.79-3.39,1.35-.81,3.15-1.22,5.41-1.22s4.1,.43,5.25,1.27c1.15,.85,1.74,1.89,1.77,3.11,.01,.49-.02,1.02-.1,1.57-.08,.56-.39,2.02-.91,4.38-.43,1.95-.64,3.33-.62,4.11,.02,.7,.18,1.47,.48,2.33h-4.81c-.2-.59-.34-1.21-.4-1.85-.7,.72-1.52,1.28-2.45,1.67-.93,.39-1.87,.59-2.82,.59-1.51,0-2.77-.45-3.78-1.34-1.01-.89-1.53-2.04-1.57-3.44-.04-1.57,.46-2.82,1.52-3.76,1.06-.94,2.98-1.51,5.76-1.7,2.35-.18,3.91-.39,4.7-.64,.19-.62,.28-1.11,.27-1.48-.01-.48-.23-.87-.67-1.19-.43-.32-1.07-.48-1.91-.48s-1.57,.16-2.07,.48c-.5,.32-.84,.77-1.01,1.35Zm4.81,4.13c-.3,.07-.69,.14-1.18,.2-2.47,.27-4.07,.66-4.82,1.18-.53,.38-.79,.88-.77,1.51,.01,.53,.23,.96,.66,1.32,.42,.36,.97,.54,1.64,.54,.74,0,1.44-.16,2.09-.49,.65-.33,1.14-.75,1.44-1.26,.31-.51,.58-1.32,.8-2.41l.13-.59Zm29.49,7.66h-4.67l.36-1.75c-.87,.77-1.73,1.32-2.59,1.66-.85,.33-1.82,.5-2.91,.5-1.89,0-3.43-.58-4.64-1.74-1.2-1.16-1.84-2.87-1.9-5.14-.07-2.63,.71-5,2.32-7.12s3.8-3.18,6.55-3.18c2.49,0,4.37,.88,5.66,2.64l1.82-8.44h4.92l-4.92,22.57h0Zm-11.57-6.64c.03,1.17,.39,2.09,1.07,2.75,.69,.66,1.52,.99,2.49,.99,.9,0,1.74-.27,2.51-.82,.77-.55,1.37-1.4,1.81-2.53,.44-1.13,.65-2.22,.62-3.26-.03-1.18-.41-2.14-1.15-2.87-.74-.73-1.58-1.1-2.52-1.1-1.46,0-2.64,.72-3.54,2.16-.9,1.44-1.33,3-1.28,4.69Zm25.43-15.93h4.92l-.83,4h-4.92s.83-4,.83-4Zm-1.29,6.21h4.92l-3.39,16.36h-4.92s3.39-16.36,3.39-16.36Zm11.48,9.57c-.08-3.04,.8-5.46,2.66-7.27,1.86-1.81,4.34-2.71,7.44-2.71,2.69,0,4.8,.67,6.35,2,1.54,1.33,2.35,3.13,2.41,5.39,.07,2.65-.81,4.95-2.65,6.89-1.84,1.94-4.34,2.91-7.5,2.91-1.72,0-3.25-.31-4.59-.93-1.34-.62-2.36-1.5-3.04-2.63-.68-1.13-1.04-2.35-1.08-3.65Zm13.95-3.18c-.03-1.06-.39-1.9-1.09-2.54-.7-.64-1.58-.96-2.65-.96s-2,.3-2.8,.89c-.81,.59-1.42,1.46-1.85,2.59-.43,1.14-.63,2.18-.6,3.13,.03,1.18,.41,2.12,1.14,2.81s1.63,1.04,2.7,1.04c1.35,0,2.46-.53,3.35-1.57,1.26-1.48,1.87-3.28,1.81-5.4Z"/></g></g></g></svg>