<?xml version="1.0" encoding="UTF-8"?>
<svg id="Layer_1" data-name="Layer 1" xmlns="http://www.w3.org/2000/svg" xmlns:xlink="http://www.w3.org/1999/xlink" viewBox="0 0 1457.04 874.08">
  <defs>
    <style>
      .cls-1 {
        fill: #ec1f24;
      }

      .cls-2 {
        fill: #2e3192;
      }

      .cls-3 {
        fill: #fff;
        fill-rule: evenodd;
        filter: url(#drop-shadow-1);
      }
    </style>
    <filter id="drop-shadow-1" filterUnits="userSpaceOnUse">
      <feOffset dx="7" dy="11"/>
      <feGaussianBlur result="blur" stdDeviation="12"/>
      <feFlood flood-color="#000" flood-opacity=".79"/>
      <feComposite in2="blur" operator="in"/>
      <feComposite in="SourceGraphic"/>
    </filter>
  </defs>
  <path class="cls-3" d="M619.9,322.28c-1.73,8.72-3.29,17.47-4.72,26.24l-.08,.5-.1,.5c-2.21,11.08-2.73,23.5-2.97,34.77-.31,14.57,1.01,29.07,3.97,43.35,3.97,17.19,11.49,24.3,27.87,25.21l4.27-1.29h4.23c8.26,0,15.68-2.24,22.8-6.4,9.83-5.75,18.78-16.25,25.42-25.36,21.38-30.91,33.4-71.4,40.69-107.86,5.12-25.63,19.3-107.47-7.09-126.84-5.72-4.2-13.48-5.24-20.39-5.24h-10.87c-2.99,.9-6,1.71-9.04,2.41-2.54,1.26-6.05,3.97-8.12,5.56l-1.41,1.08-1.53,.9c-10.7,6.28-18.63,15.8-24.76,26.45l-.27,.47-.29,.46c-8.81,14.05-15.71,29.61-21.4,45.17l-8.28,28.51-7.93,31.39ZM174.14,727.02c.37,7.72,2.8,14.14,8.3,19.65,5.47,5.47,11.95,7.39,19.62,7.39s14.01-2.55,20.09-6.81c7.95-5.57,13.32-14.38,17.06-23.17,4.41-10.35,7.05-21.3,6.51-32.61-.38-8.01-2.3-16.07-8.26-21.78-5.45-5.23-11.69-7.2-19.2-7.2-14.05,0-23.59,6.16-31.28,17.78-9.44,14.26-13.67,29.67-12.86,46.75Zm1083.01,48.2c-5.3,13.6-18.69,29.63-34.06,38.81-14.84,8.86-31.29,12.89-48.54,12.89-23.39,0-44.89-7.01-62.25-22.89-17.53-16.03-26.06-36.98-27.18-60.58-1.09-22.9,4.64-44.29,17.87-63.05,18.95-26.86,47.24-38.43,79.66-38.43,21.47,0,41.39,6.28,57.12,21.18,16.13,15.27,23.08,35.71,24.12,57.55,.67,14.18,.3,35.44-6.75,54.53Zm-296.43-129.8c7.97-2.33,16.21-3.45,24.6-3.45,15.76,0,30.68,4.37,42.49,15.09,11.64,10.57,17.51,24.55,18.21,40.19,.43,9.73-2.16,22.4-4.09,32l-16.88,94.22h-80.21l18.47-101.77c.66-3.66,1.56-8.07,2.17-12.24-1.9,.79-3.92,2.03-5.06,2.79-4,2.67-6.89,6.1-9.01,10.42l-.11,.22-.11,.21c-2.95,5.66-5.58,20.72-6.77,27.21l-12.51,73.16h-80.17l30.97-178.04h78.01Zm-492,64.03c-1.9,.79-3.92,2.03-5.06,2.79-4,2.67-6.89,6.1-9.01,10.42l-.11,.22-.11,.21c-2.95,5.66-5.58,20.72-6.77,27.21l-12.51,73.16h-80.17l30.97-178.04h78.01c7.97-2.33,16.21-3.45,24.6-3.45,15.76,0,30.68,4.37,42.49,15.09,11.64,10.57,17.51,24.55,18.21,40.19,.43,9.73-2.16,22.4-4.09,32l-16.88,94.22h-80.21l18.47-101.77c.66-3.66,1.56-8.07,2.17-12.24Zm-375.7,20.23c-.66-13.82,1-27.68,4.15-41.13,4.29-18.28,11.52-35.54,22.61-50.76,11.03-15.14,25.26-26.88,41.96-35.29,5.18-2.61,10.51-4.78,15.94-6.54H86.48L29.19,35.5H219.34l19.14,283.8L376.63,35.5h184.52L273.41,595.95h-13.67c12.74,4.41,24.57,11.26,35.12,20.91,20.85,19.09,30.93,44,32.26,72.08,1.13,23.78-3.79,46.56-14.14,68-10.43,21.59-25.71,39.33-46.2,51.84-20.65,12.61-43.7,18.13-67.81,18.13-20.53,0-40.66-4.21-58.3-15.07-15.3-9.42-27.96-21.94-35.94-38.17-6.8-13.82-10.98-28.58-11.72-43.99ZM917.44,291.61l51.18-256.11h179.31l-39.91,199.69h87.34l39.91-199.69h178.71l-112,560.45h-178.71l41.3-206.65h-88.54l-41.3,206.65h-178.11l48.63-243.33c-6.7,26.36-15.4,52.25-26.78,76.93-14.96,32.46-34.32,62.5-57.63,89.61-23.47,27.29-51.44,49.28-83.9,64.9-11.55,5.56-23.39,10.05-35.47,13.55l-39.25,225.84h-80.12l37.71-216.65c-31.75-1.38-63.57-8.1-91.09-24.5-28.32-16.16-50.03-39.06-64.87-68.09-14.95-29.26-22.11-61.18-23.56-93.9l-.04-.83,.66-48.09,.04-.64c1.03-17.72,3.54-35.37,7.01-52.77,14.99-75,43.54-146.21,92.33-205.76,50.01-61.03,118.16-87.16,196.31-87.16,38.3,0,74.93,8.91,107.37,29.7,36.19,23.19,57.13,61.02,69.2,101.27l.1,.34,.09,.34c6.76,24.77,9.35,50.57,9.04,76.21-.24,19.58-2.08,39.23-4.96,58.69Zm-89.58,353.8h0l-.19,1.09-3.55,20.5h-.02l-27.21,156.45h-80.12l27.21-156.45h-.01l3.35-19.22,.41-2.37h0l9.13-52.33h80.04l-9.06,52.33Z"/>
  <polygon class="cls-1" points="61.78 64.33 193.31 64.33 217.9 428.92 395.39 64.33 514.96 64.33 256.69 567.37 113.2 567.37 61.78 64.33"/>
  <path class="cls-1" d="M592.69,316.08c-1.78,8.93-3.45,18.21-5.04,27.95-2.04,10.21-3.23,23.42-3.52,39.78-.43,16.58,1.11,33.28,4.62,50.09,7.26,31.89,27.19,47.89,59.8,47.89l4.61-1.39c13.28,0,25.71-3.48,37.29-10.32,11.44-6.61,22.88-17.74,34.34-33.51,20.29-29.22,35.44-68.88,45.43-118.86,22.18-110.98,3.63-166.41-55.62-166.41h-15.26c-4.25,1.39-8.28,2.55-12.05,3.36-4.16,.93-10.18,4.41-18.19,10.55-14.02,8.24-25.69,20.53-35.1,36.87-9.02,14.38-17.14,31.54-24.38,51.49l-8.69,29.92-8.23,32.59Zm-115.79,7.65c15.57-77.93,44.33-142.29,86.39-193.2,41.56-51.14,99.59-76.65,174.11-76.65,34.59,0,65.26,8.35,91.89,25.16,26.22,17.04,45.27,45.57,57.19,85.35,5.48,20.06,8.16,42.79,8.03,68.3-.49,25.98-3.8,54.27-9.92,84.88-7.42,37.11-17.86,70.39-31.38,100.08-13.9,29.8-31.7,57.4-53.33,82.91-22.15,25.39-46.95,44.65-74.59,57.75-27.53,13.45-58.14,20.18-91.73,20.18-36.49,0-66.35-6.96-89.58-20.87-23.69-13.45-41.61-32.24-53.77-56.36-12.25-23.66-19.07-51.02-20.45-82.1l.64-46.61c.89-15.31,3.05-31.54,6.51-48.82Z"/>
  <polygon class="cls-1" points="992.96 64.33 1113.73 64.33 1073.82 264.02 1219.7 264.02 1259.61 64.33 1379.78 64.33 1279.25 567.37 1159.08 567.37 1200.37 360.73 1053.3 360.73 1012 567.37 892.43 567.37 992.96 64.33"/>
  <path class="cls-2" d="M112.87,729.88c-.53-11.24,.69-23.09,3.66-35.54,3.87-16.69,10.29-31.17,19.27-43.45,8.97-12.28,20.56-21.98,34.76-29.12s30.58-10.7,49.15-10.7c24.88,0,45.32,7.31,61.33,21.92,16.01,14.61,24.59,33.98,25.74,58.11,.95,20.06-3.11,39.47-12.19,58.23-9.08,18.76-21.93,33.2-38.55,43.32-16.62,10.12-35.73,15.17-57.31,15.17-18.75,0-34.67-4.02-47.76-12.06-13.09-8.04-22.58-18.01-28.44-29.9-5.87-11.89-9.09-23.88-9.67-35.99Zm40.84-.78c.62,13.06,5.35,23.99,14.18,32.81,8.83,8.82,20.11,13.23,33.83,13.23,11.16,0,21.72-3.48,31.67-10.44,9.96-6.96,17.96-17.51,24.01-31.65,6.05-14.14,8.76-27.91,8.12-41.31-.71-14.96-5.52-26.7-14.43-35.21-8.91-8.51-19.95-12.77-33.12-12.77-20.21,0-36.23,8.91-48.05,26.72-11.82,17.81-17.23,37.35-16.21,58.62Z"/>
  <path class="cls-2" d="M402.44,666.72h37.31l-2.99,17.9c8.97-7.61,17.42-13.04,25.36-16.28,7.94-3.24,16.39-4.86,25.35-4.86,11.98,0,21.58,3.24,28.79,9.73,7.21,6.49,11.07,15.09,11.58,25.81,.23,4.84-.84,14.01-3.22,27.5l-13.44,77.95h-39.37l13.57-78.21c2.01-11.67,2.96-18.63,2.85-20.88-.23-4.75-1.89-8.5-4.99-11.22-3.1-2.72-7.31-4.09-12.61-4.09-5.76,0-12.06,2.29-18.88,6.87-6.83,4.58-12.07,10.64-15.74,18.16-2.67,5.36-5.45,16.3-8.32,32.81l-9.8,56.55h-39.37l23.91-137.74Z"/>
  <path class="cls-2" d="M605.66,804.46l33.08-190.14h39.23l-32.95,190.14h-39.37Z"/>
  <path class="cls-2" d="M764.25,666.72h39.37l-23.91,137.74h-39.37l23.91-137.74Zm9.03-52.4h39.37l-5.81,33.72h-39.37l5.81-33.72Z"/>
  <path class="cls-2" d="M899.19,666.72h37.31l-2.99,17.9c8.97-7.61,17.42-13.04,25.36-16.28,7.94-3.24,16.39-4.86,25.35-4.86,11.98,0,21.58,3.24,28.79,9.73,7.21,6.49,11.07,15.09,11.58,25.81,.23,4.84-.84,14.01-3.22,27.5l-13.45,77.95h-39.37l13.57-78.21c2-11.67,2.96-18.63,2.85-20.88-.23-4.75-1.89-8.5-4.99-11.22-3.1-2.72-7.31-4.09-12.61-4.09-5.76,0-12.05,2.29-18.88,6.87-6.83,4.58-12.07,10.64-15.74,18.16-2.67,5.36-5.45,16.3-8.32,32.81l-9.8,56.55h-39.37l23.91-137.74Z"/>
  <path class="cls-2" d="M1241.81,747.13h-98.77c-.02,1.47-.01,2.59,.02,3.37,.44,9.17,3.55,16.56,9.35,22.18,5.8,5.62,12.68,8.43,20.63,8.43,13.08,0,22.97-6.4,29.68-19.2l35.52,5.58c-6.22,13.4-14.91,23.46-26.07,30.16-11.16,6.7-23.87,10.05-38.14,10.05-19.57,0-35.76-5.86-48.57-17.57-12.81-11.71-19.67-27.21-20.59-46.5-.9-18.85,3.84-35.62,14.21-50.32,14.15-19.89,35.21-29.83,63.2-29.83,17.83,0,32.26,5.21,43.27,15.63,11.01,10.42,16.96,25.01,17.86,43.77,.43,8.99-.1,17.08-1.59,24.25Zm-34.28-22.7c.01-1.64,0-2.9-.04-3.76-.48-10.2-3.27-17.85-8.36-22.96-5.09-5.1-11.71-7.65-19.84-7.65s-15.29,2.9-21.47,8.69c-6.17,5.79-10.13,14.35-11.88,25.68h61.59Z"/>
</svg>